<svg width="28" height="27" viewBox="0 0 28 27" fill="none" xmlns="http://www.w3.org/2000/svg">
<path d="M27.3071 6.44945C27.3057 5.96911 27.2618 5.48982 27.176 5.01721C27.0801 4.43946 26.8977 3.87946 26.6349 3.35607C26.3466 2.8061 25.9714 2.30632 25.5238 1.87605C24.8482 1.2155 24.0141 0.739872 23.1016 0.494923C22.2633 0.29174 21.4018 0.199837 20.5395 0.221585L20.535 0.208252H7.45979V0.221585C6.96899 0.217608 6.47832 0.239491 5.98983 0.287142C5.45541 0.344292 4.92936 0.462854 4.42209 0.64048C3.58578 0.955426 2.83552 1.46316 2.23223 2.12246C1.62894 2.78176 1.18963 3.57404 0.949952 4.43498C0.748157 5.26606 0.656264 6.12003 0.676626 6.97502L0.666626 20.093C0.675136 20.687 0.715564 21.28 0.787734 21.8697C0.876795 22.4918 1.06078 23.0967 1.33328 23.663C1.71801 24.4195 2.26556 25.0813 2.93657 25.6008C3.41603 25.983 3.95916 26.2775 4.54097 26.4708C5.39512 26.7345 6.28481 26.8649 7.17869 26.8575C7.73867 26.8609 8.29755 26.8753 8.85642 26.8731C12.923 26.8553 16.9884 26.902 21.0539 26.8475C21.591 26.8358 22.1262 26.7789 22.6539 26.6775C23.6509 26.5022 24.5789 26.0511 25.3327 25.3753C26.2202 24.6047 26.84 23.572 27.1026 22.4263C27.2642 21.6593 27.3414 20.8768 27.3326 20.093V19.9363C27.3326 19.8752 27.3104 6.62501 27.3071 6.44945ZM23.7372 18.7885C23.5661 19.1885 22.7039 19.5185 21.2439 19.7441C21.1072 19.7663 21.0495 19.9874 20.9706 20.3497C20.9372 20.4997 20.9039 20.6463 20.8595 20.7997C20.8461 20.8648 20.8093 20.9229 20.7561 20.9628C20.7029 21.0027 20.6369 21.0218 20.5706 21.0163H20.5484C20.4086 21.0114 20.2695 20.9939 20.1328 20.9641C19.7725 20.8884 19.4055 20.8493 19.0373 20.8474C18.7729 20.8481 18.5091 20.8704 18.2484 20.9141C17.6976 21.0535 17.1854 21.3152 16.7496 21.6797C16.0132 22.3084 15.088 22.6732 14.1207 22.7164C14.0652 22.7164 14.0118 22.7141 13.9719 22.7119C13.9393 22.7147 13.9067 22.7162 13.8741 22.7164C12.9072 22.6738 11.9823 22.3093 11.2464 21.6808C10.8102 21.316 10.2976 21.0539 9.7464 20.9141C9.4857 20.8704 9.22186 20.8481 8.95753 20.8474C8.58947 20.8511 8.22276 20.8925 7.86311 20.9708C7.72659 21.0027 7.58755 21.0228 7.44757 21.0308C7.3771 21.0387 7.30622 21.0201 7.24872 20.9786C7.19121 20.9371 7.1512 20.8757 7.13646 20.8063C7.0898 20.6508 7.05647 20.4985 7.02536 20.353C6.94536 19.9885 6.88758 19.7663 6.75092 19.7452C5.29207 19.5196 4.42875 19.1885 4.25765 18.7863C4.24029 18.7462 4.23013 18.7033 4.22765 18.6596C4.22415 18.6019 4.24222 18.5449 4.27835 18.4997C4.31448 18.4546 4.3661 18.4244 4.4232 18.4152C5.63023 18.1967 6.71791 17.5501 7.48646 16.594C7.90944 16.1049 8.26106 15.5584 8.53087 14.9707L8.53532 14.9596C8.6149 14.8294 8.66508 14.6834 8.68235 14.5317C8.69962 14.3801 8.68357 14.2266 8.63532 14.0818C8.44754 13.6373 7.82422 13.4407 7.41312 13.3096C7.31949 13.2816 7.22685 13.2505 7.13535 13.2162C6.77092 13.0718 6.17093 12.7673 6.25093 12.3462C6.31217 12.1879 6.42133 12.0527 6.56316 11.9594C6.705 11.8662 6.87242 11.8196 7.04202 11.8262C7.12456 11.8243 7.20651 11.8406 7.28202 11.874C7.58969 12.0315 7.92778 12.1205 8.2731 12.1351C8.47814 12.1495 8.68125 12.0874 8.84309 11.9606C8.83272 11.7658 8.82087 11.5714 8.80753 11.3773C8.61985 10.0619 8.69997 8.72205 9.04308 7.43835C9.44667 6.51705 10.1127 5.73507 10.9581 5.19006C11.8034 4.64505 12.7906 4.36117 13.7963 4.37387L14.1896 4.37053C15.1967 4.35765 16.1852 4.64161 17.0319 5.18698C17.8785 5.73236 18.5459 6.515 18.9506 7.43724C19.2939 8.72205 19.374 10.063 19.1862 11.3795L19.1828 11.4429L19.1517 11.9618C19.2987 12.0783 19.4819 12.1396 19.6695 12.1351C19.9947 12.1106 20.3118 12.0223 20.6028 11.8751C20.6991 11.8332 20.8033 11.8123 20.9083 11.814C21.0275 11.8136 21.1456 11.8362 21.2561 11.8806L21.2617 11.8829C21.3867 11.9129 21.4999 11.9794 21.5869 12.074C21.674 12.1686 21.7309 12.2869 21.7505 12.414C21.755 12.6184 21.6039 12.9229 20.8583 13.2173C20.7672 13.2514 20.6749 13.2825 20.5817 13.3107C20.1695 13.4418 19.5473 13.6396 19.3595 14.0829C19.3113 14.2275 19.2953 14.3809 19.3126 14.5323C19.3299 14.6837 19.38 14.8295 19.4595 14.9596L19.4639 14.9707C19.8369 15.8225 20.4018 16.5766 21.1143 17.1741C21.8268 17.7716 22.6678 18.1964 23.5716 18.4152C23.6286 18.4247 23.6801 18.4549 23.7162 18.5C23.7522 18.5451 23.7704 18.6019 23.7672 18.6596C23.7648 18.704 23.7547 18.7477 23.7372 18.7885Z" fill="#073D55"/>
</svg>
