<svg width="31" height="25" viewBox="0 0 31 25" fill="none" xmlns="http://www.w3.org/2000/svg">
<path d="M30.524 3.31256C29.4107 3.78566 28.2147 4.10532 26.9573 4.24981C28.2547 3.50537 29.2253 2.33371 29.688 0.953456C28.4691 1.64775 27.1351 2.13645 25.744 2.39833C24.8085 1.44045 23.5694 0.805551 22.2191 0.592206C20.8688 0.378861 19.4828 0.599005 18.2763 1.21846C17.0698 1.83791 16.1104 2.82202 15.5469 4.01799C14.9834 5.21396 14.8474 6.55488 15.16 7.83257C12.6902 7.71365 10.2742 7.09805 8.06856 6.02572C5.86296 4.95339 3.91712 3.4483 2.35733 1.60812C1.824 2.49039 1.51733 3.51331 1.51733 4.60271C1.51673 5.58343 1.76857 6.54912 2.2505 7.41411C2.73243 8.2791 3.42954 9.01665 4.28 9.5613C3.2937 9.5312 2.32916 9.27563 1.46666 8.81585V8.89257C1.46656 10.2681 1.96271 11.6012 2.87091 12.6658C3.77911 13.7305 5.04342 14.461 6.44933 14.7334C5.53437 14.9709 4.57511 15.0059 3.644 14.8357C4.04066 16.0192 4.81332 17.0542 5.85382 17.7957C6.89431 18.5372 8.15055 18.9481 9.44666 18.9709C7.24644 20.6272 4.52918 21.5257 1.732 21.5218C1.2365 21.5219 0.74143 21.4941 0.249329 21.4386C3.08863 23.1893 6.39378 24.1185 9.76933 24.1148C21.196 24.1148 27.4427 15.039 27.4427 7.16767C27.4427 6.91195 27.436 6.65366 27.424 6.39793C28.6391 5.55527 29.6879 4.51179 30.5213 3.31639L30.524 3.31256Z" fill="#073D55"/>
</svg>
