<svg width="32" height="22" viewBox="0 0 32 22" fill="none" xmlns="http://www.w3.org/2000/svg">
<path d="M31.349 3.37785C31.1669 2.72989 30.811 2.13896 30.3167 1.66389C29.8225 1.18882 29.2071 0.846175 28.5318 0.67006C26.028 0.0107444 16.0111 1.16477e-05 16.0111 1.16477e-05C16.0111 1.16477e-05 5.99576 -0.0107217 3.49033 0.619461C2.81549 0.803681 2.20136 1.15117 1.7069 1.62857C1.21244 2.10598 0.854255 2.69726 0.666731 3.34566C0.00639811 5.74679 2.34257e-06 10.7269 2.34257e-06 10.7269C2.34257e-06 10.7269 -0.00639311 15.7316 0.649143 18.1082C1.01688 19.4222 2.09612 20.4603 3.46795 20.8145C5.99736 21.4738 15.9871 21.4845 15.9871 21.4845C15.9871 21.4845 26.004 21.4952 28.5078 20.8666C29.1833 20.6908 29.7993 20.3489 30.2948 19.8748C30.7903 19.4007 31.1482 18.8108 31.333 18.1634C31.995 15.7638 31.9998 10.7852 31.9998 10.7852C31.9998 10.7852 32.0317 5.77899 31.349 3.37785ZM12.8069 15.3406L12.8149 6.14085L21.1402 10.7484L12.8069 15.3406Z" fill="#073D55"/>
</svg>
